HIERARCHY
ROOT Hips
{
	OFFSET -0.001795 -0.223333 0.028219
	CHANNELS 6 Xposition Yposition Zposition Zrotation Yrotation Xrotation 
	JOINT LeftUpLeg
	{
		OFFSET 0.069520 -0.091406 -0.006815
		CHANNELS 3 Zrotation Yrotation Xrotation
		JOINT LeftLeg
		{
			OFFSET 0.034277 -0.375199 -0.004496
			CHANNELS 3 Zrotation Yrotation Xrotation
			JOINT LeftFoot
			{
				OFFSET -0.013596 -0.397961 -0.043693
				CHANNELS 3 Zrotation Yrotation Xrotation
				JOINT LeftToe
				{
					OFFSET 0.026358 -0.055791 0.119288
					CHANNELS 3 Zrotation Yrotation Xrotation
					End Site
					{
						OFFSET 0.000000 0.000000 0.000000
					}
				}
			}
		}
	}
	JOINT RightUpLeg
	{
		OFFSET -0.067670 -0.090522 -0.004320
		CHANNELS 3 Zrotation Yrotation Xrotation
		JOINT RightLeg
		{
			OFFSET -0.038290 -0.382569 -0.008850
			CHANNELS 3 Zrotation Yrotation Xrotation
			JOINT RightFoot
			{
				OFFSET 0.015774 -0.398415 -0.042312
				CHANNELS 3 Zrotation Yrotation Xrotation
				JOINT RightToe
				{
					OFFSET -0.025372 -0.048144 0.123348
					CHANNELS 3 Zrotation Yrotation Xrotation
					End Site
					{
						OFFSET 0.000000 0.000000 0.000000
					}
				}
			}
		}
	}
	JOINT Spine
	{
		OFFSET -0.002533 0.108963 -0.026696
		CHANNELS 3 Zrotation Yrotation Xrotation
		JOINT Spine1
		{
			OFFSET 0.005487 0.135180 0.001092
			CHANNELS 3 Zrotation Yrotation Xrotation
			JOINT Spine2
			{
				OFFSET 0.001457 0.052922 0.025425
				CHANNELS 3 Zrotation Yrotation Xrotation
				JOINT Neck
				{
					OFFSET -0.002778 0.213870 -0.042857
					CHANNELS 3 Zrotation Yrotation Xrotation
					JOINT Head
					{
						OFFSET 0.005152 0.064970 0.051349
						CHANNELS 3 Zrotation Yrotation Xrotation
						End Site
						{
							OFFSET 0.000000 0.000000 0.000000
						}
					}
				}
				JOINT LeftShoulder
				{
					OFFSET 0.078845 0.121749 -0.034090
					CHANNELS 3 Zrotation Yrotation Xrotation
					JOINT LeftArm
					{
						OFFSET 0.090977 0.030469 -0.008868
						CHANNELS 3 Zrotation Yrotation Xrotation
						JOINT LeftForeArm
						{
							OFFSET 0.259612 -0.012772 -0.027456
							CHANNELS 3 Zrotation Yrotation Xrotation
							JOINT LeftHand
							{
								OFFSET 0.249234 0.008986 -0.001171
								CHANNELS 3 Zrotation Yrotation Xrotation
								End Site
								{
									OFFSET 0.000000 0.000000 0.000000
								}
							}
						}
					}
				}
				JOINT RightShoulder
				{
					OFFSET -0.081759 0.118833 -0.038615
					CHANNELS 3 Zrotation Yrotation Xrotation
					JOINT RightArm
					{
						OFFSET -0.096012 0.032551 -0.009143
						CHANNELS 3 Zrotation Yrotation Xrotation
						JOINT RightForeArm
						{
							OFFSET -0.253742 -0.013329 -0.021401
							CHANNELS 3 Zrotation Yrotation Xrotation
							JOINT RightHand
							{
								OFFSET -0.255298 0.007772 -0.005559
								CHANNELS 3 Zrotation Yrotation Xrotation
								End Site
								{
									OFFSET 0.000000 0.000000 0.000000
								}
							}
						}
					}
				}
			}
		}
	}
}
MOTION
Frames: 7
Frame Time: 0.050000
-0.251218 0.927716 0.798239 -2.037143 -18.862397 7.582483 5.413483 -0.105721 -3.618205 -5.580101 1.072678 5.220591 11.110380 24.480766 -0.719504 0.000000 0.000000 0.000000 3.254997 2.742255 -19.599347 1.691191 0.934674 16.900132 -1.641404 -4.757144 0.853322 0.000000 0.000000 0.000000 7.966456 -1.518836 16.393769 5.984654 -2.702372 6.236355 -9.952980 -2.917952 5.654625 8.723922 -4.539990 -19.369921 0.000000 0.000000 0.000000 -16.159941 -26.927222 15.241959 -38.705841 -39.839204 7.694045 32.625710 -42.015764 -9.601027 0.000000 0.000000 0.000000 21.626060 6.914792 -1.183334 54.194289 -0.889308 -4.952101 -2.513854 44.302734 -0.881757 0.000000 0.000000 0.000000 
-0.248794 0.927629 0.794631 -2.053234 -18.446960 7.750846 4.865332 -0.166127 -4.137571 -5.417120 0.993818 4.472301 10.887406 24.141477 -1.300657 0.000000 0.000000 0.000000 3.308747 2.778313 -19.795703 1.394560 0.962794 16.678139 -1.915357 -5.355221 0.743085 0.000000 0.000000 0.000000 7.756663 -1.500730 16.300725 5.777731 -2.610124 6.036695 -9.836724 -2.431665 5.583986 9.375866 -4.825059 -19.426243 0.000000 0.000000 0.000000 -16.655609 -26.277128 14.864071 -39.403551 -37.670835 7.062210 30.654649 -42.521525 -9.018939 0.000000 0.000000 0.000000 21.585768 7.037394 -0.895833 54.033802 -0.723514 -4.904676 -2.796656 45.367036 -0.926925 0.000000 0.000000 0.000000 
-0.246214 0.927611 0.790207 -1.951324 -18.012466 7.624419 4.288738 -0.207813 -4.257585 -5.299985 0.936401 3.888353 10.553213 23.512748 -1.760136 0.000000 0.000000 0.000000 3.136917 2.780693 -19.947145 1.030425 1.038826 16.815686 -1.983019 -5.269429 0.357688 0.000000 0.000000 0.000000 7.376268 -1.468355 16.612101 5.548173 -2.514259 5.892784 -9.590380 -1.847527 5.538788 9.817603 -4.936038 -19.820025 0.000000 0.000000 0.000000 -16.797064 -25.792257 14.435165 -40.077444 -35.954737 6.598851 29.145591 -41.558533 -8.284810 0.000000 0.000000 0.000000 21.482207 7.016927 -0.646083 53.917092 -0.220094 -4.727369 -3.107936 46.233675 -0.962153 0.000000 0.000000 0.000000 
-0.243562 0.927152 0.784841 -1.974324 -17.454241 7.122614 3.822169 -0.237271 -4.351993 -5.641970 0.977395 3.507404 10.108761 22.686440 -2.554131 0.000000 0.000000 0.000000 3.170940 2.776163 -19.923233 0.507691 1.137187 16.840052 -1.976507 -5.626380 0.940185 0.000000 0.000000 0.000000 7.075659 -1.443527 17.002566 5.430223 -2.486412 5.810471 -9.659924 -1.348348 5.694526 10.287017 -5.095447 -20.047904 0.000000 0.000000 0.000000 -16.641217 -25.340581 13.919787 -40.336021 -34.382924 6.086525 28.370805 -40.950577 -7.930153 0.000000 0.000000 0.000000 21.810323 7.097328 -0.386217 53.702234 0.486222 -4.454927 -2.939266 46.578874 -0.755073 0.000000 0.000000 0.000000 
-0.240570 0.926417 0.778450 -1.857634 -16.898497 6.619795 3.313875 -0.291378 -4.875757 -5.988477 1.061829 4.132946 9.899706 22.289312 -3.175757 0.000000 0.000000 0.000000 2.943852 2.787744 -20.153723 0.748449 1.136912 17.568067 -2.213627 -6.173218 0.902372 0.000000 0.000000 0.000000 6.655828 -1.387839 17.115845 4.993077 -2.294411 5.963462 -9.340159 -0.641465 5.585821 10.391251 -5.136775 -19.610781 0.000000 0.000000 0.000000 -17.504777 -25.118777 13.755435 -40.147328 -32.941256 5.518098 27.722814 -40.529741 -7.712227 0.000000 0.000000 0.000000 22.179069 7.261512 -0.027256 53.713487 1.275004 -4.165834 -3.006700 47.163899 -0.629613 0.000000 0.000000 0.000000 
-0.237300 0.926127 0.771083 -1.859507 -16.784119 6.082134 2.933823 -0.335053 -5.358431 -6.203215 1.116521 4.437249 9.385155 21.223114 -3.823924 0.000000 0.000000 0.000000 2.903481 2.965330 -21.098859 1.023119 1.198956 18.898825 -2.975313 -8.580230 1.950189 0.000000 0.000000 0.000000 6.433607 -1.364312 17.634346 4.463014 -2.039639 5.334267 -8.959861 0.062024 6.211527 10.314161 -5.191877 -18.947979 0.000000 0.000000 0.000000 -18.113159 -24.333735 13.311660 -40.666670 -31.698041 5.111178 28.434462 -40.909744 -8.071020 0.000000 0.000000 0.000000 22.713776 7.374331 0.193053 53.529743 2.785461 -3.582493 -2.378682 45.772183 -0.204026 0.000000 0.000000 0.000000 
-0.233229 0.925477 0.762436 -1.931268 -17.128308 5.947003 3.099126 -0.383652 -6.594817 -6.888518 1.319141 5.414804 9.030751 20.579804 -4.755495 0.000000 0.000000 0.000000 2.394067 3.215962 -22.729689 1.574783 1.231799 20.490496 -3.549701 -10.072701 2.195155 0.000000 0.000000 0.000000 6.259030 -1.335769 18.006815 3.493330 -1.544432 5.238324 -8.298011 0.958770 5.805944 10.356518 -5.211526 -18.490902 0.000000 0.000000 0.000000 -19.709743 -23.112022 12.779756 -40.944026 -30.385338 4.693312 28.318105 -42.693681 -8.480910 0.000000 0.000000 0.000000 23.165189 8.092832 0.788180 53.798823 3.633360 -3.241547 -2.821963 43.412789 -0.228520 0.000000 0.000000 0.000000 
